<svg width="1096" height="805" viewBox="0 0 1096 805" fill="none" xmlns="http://www.w3.org/2000/svg">
<rect x="167" y="202" width="760" height="456" rx="30" fill="#FDF5E1"/>
<path d="M1035 623C1035 699.768 974.558 762 900 762C825.442 762 765 699.768 765 623C765 546.232 825.442 484 900 484C974.558 484 1035 546.232 1035 623Z" fill="white" fill-opacity="0.5"/>
<path d="M320 185C320 261.768 259.558 324 185 324C110.442 324 50 261.768 50 185C50 108.232 110.442 46 185 46C259.558 46 320 108.232 320 185Z" fill="white" fill-opacity="0.5"/>
<path d="M349 175C349 271.098 271.098 349 175 349C78.9025 349 1 271.098 1 175C1 78.9025 78.9025 1 175 1C271.098 1 349 78.9025 349 175Z" stroke="white" stroke-width="2"/>
<path d="M1095 630C1095 653.972 1088.87 668.976 1078.61 679.999C1068.3 691.083 1053.73 698.239 1036.57 706.339C1035.79 706.711 1034.99 707.084 1034.2 707.46C1000.36 723.409 957.657 743.538 920.441 803.999C872.3 803.905 808.356 791.662 761.976 757.355C738.714 740.148 719.883 717.401 709.65 687.852C699.417 658.3 697.757 621.867 708.97 577.244C721.546 527.193 763.119 485.878 813.753 457.051C864.237 428.309 923.549 412.087 971.611 412C1019.46 455.874 1050.27 486.31 1069.14 517.771C1088.02 549.233 1095 581.786 1095 630Z" stroke="white" stroke-width="2"/>
</svg>
