<svg width="508" height="418" viewBox="0 0 508 418" fill="none" xmlns="http://www.w3.org/2000/svg">
<path d="M243.23 418C370.381 418 473.458 411.869 473.458 404.307C473.458 396.744 370.381 390.613 243.23 390.613C116.079 390.613 13.002 396.744 13.002 404.307C13.002 411.869 116.079 418 243.23 418Z" fill="#7BC678"/>
<path opacity="0.6" d="M243.23 418C370.381 418 473.458 411.869 473.458 404.307C473.458 396.744 370.381 390.613 243.23 390.613C116.079 390.613 13.002 396.744 13.002 404.307C13.002 411.869 116.079 418 243.23 418Z" fill="white"/>
<path d="M55.1972 114.177H438.583C441.995 114.177 445.268 115.533 447.681 117.946C450.095 120.359 451.45 123.633 451.45 127.046V379.75H42.3418V127.046C42.3418 123.635 43.6958 120.363 46.1063 117.95C48.5168 115.537 51.7866 114.18 55.1972 114.177Z" fill="#7BC678" stroke="#263238" stroke-width="0.920603" stroke-miterlimit="10"/>
<path d="M434.855 134.932H58.937V347.393H434.855V134.932Z" fill="white"/>
<g style="mix-blend-mode:multiply" opacity="0.4">
<path d="M434.855 347.393V166.034L123.903 347.393H434.855Z" fill="#7BC678"/>
</g>
<path d="M434.855 134.932H58.937V347.393H434.855V134.932Z" stroke="#263238" stroke-width="0.690452" stroke-miterlimit="10"/>
<path d="M388.404 366.967H107.246V380.82H388.404V366.967Z" fill="#7BC678" stroke="#263238" stroke-width="0.691688" stroke-miterlimit="10"/>
<path d="M388.404 373.648H107.246V380.833H388.404V373.648Z" fill="#7BC678" stroke="#263238" stroke-width="0.691688" stroke-miterlimit="10"/>
<path d="M9.25 389.039C9.25 389.039 13.8755 394.686 27.7027 399.299H467.935C467.935 399.299 478.194 396.728 482.82 389.543L9.25 389.039Z" fill="#7BC678" stroke="#263238" stroke-width="0.920603" stroke-miterlimit="10"/>
<path d="M480.495 378.926H11.6364C9.80202 378.926 8.31494 380.413 8.31494 382.247V386.394C8.31494 388.228 9.80202 389.715 11.6364 389.715H480.495C482.329 389.715 483.816 388.228 483.816 386.394V382.247C483.816 380.413 482.329 378.926 480.495 378.926Z" fill="#7BC678" stroke="#263238" stroke-width="0.920603" stroke-miterlimit="10"/>
<path d="M246.81 125.803C248.794 125.803 250.402 124.195 250.402 122.211C250.402 120.227 248.794 118.618 246.81 118.618C244.826 118.618 243.218 120.227 243.218 122.211C243.218 124.195 244.826 125.803 246.81 125.803Z" fill="#263238"/>
<path d="M199.35 118.618H109.547C109.311 118.618 109.077 118.572 108.859 118.481C108.641 118.391 108.443 118.259 108.277 118.092C108.11 117.925 107.977 117.727 107.887 117.509C107.797 117.291 107.75 117.058 107.75 116.822C107.75 116.586 107.797 116.353 107.887 116.135C107.977 115.917 108.11 115.719 108.277 115.552C108.443 115.385 108.641 115.253 108.859 115.162C109.077 115.072 109.311 115.026 109.547 115.026H199.35C199.825 115.029 200.28 115.219 200.616 115.555C200.952 115.892 201.142 116.347 201.146 116.822C201.146 117.298 200.956 117.755 200.62 118.092C200.283 118.429 199.826 118.618 199.35 118.618Z" fill="#7BC678" stroke="#263238" stroke-width="0.691688" stroke-miterlimit="10"/>
<path d="M382.511 118.618H292.708C292.231 118.618 291.774 118.429 291.438 118.092C291.101 117.755 290.912 117.298 290.912 116.822C290.915 116.347 291.105 115.892 291.441 115.555C291.777 115.219 292.232 115.029 292.708 115.026H382.511C382.987 115.026 383.444 115.215 383.781 115.552C384.118 115.889 384.307 116.346 384.307 116.822C384.307 117.298 384.118 117.755 383.781 118.092C383.444 118.429 382.987 118.618 382.511 118.618Z" fill="#7BC678" stroke="#263238" stroke-width="0.691688" stroke-miterlimit="10"/>
<path d="M447.932 188.918C447.66 188.918 447.399 188.811 447.205 188.619C447.012 188.428 446.902 188.169 446.898 187.897V158.136C446.902 157.862 447.012 157.601 447.205 157.408C447.398 157.215 447.659 157.105 447.932 157.102C448.204 157.105 448.463 157.216 448.655 157.409C448.846 157.603 448.953 157.864 448.953 158.136V187.897C448.953 188.167 448.845 188.427 448.654 188.619C448.462 188.81 448.203 188.918 447.932 188.918Z" fill="#7BC678" stroke="#263238" stroke-width="0.691688" stroke-miterlimit="10"/>
<path d="M46.1919 188.918C46.0579 188.918 45.9251 188.891 45.8012 188.84C45.6773 188.789 45.5648 188.713 45.4699 188.619C45.3751 188.524 45.2999 188.411 45.2486 188.287C45.1973 188.163 45.1709 188.031 45.1709 187.897V158.136C45.1709 157.864 45.2781 157.603 45.4692 157.409C45.6603 157.216 45.92 157.105 46.1919 157.102C46.465 157.105 46.726 157.215 46.9191 157.408C47.1122 157.601 47.2221 157.862 47.2253 158.136V187.897C47.2221 188.169 47.1118 188.428 46.9183 188.619C46.7249 188.811 46.4639 188.918 46.1919 188.918Z" fill="#7BC678" stroke="#263238" stroke-width="0.691688" stroke-miterlimit="10"/>
<path d="M327.374 196.718C329.121 195.488 331.003 193.298 331.065 190.985C331.088 190.443 330.997 189.902 330.799 189.397C330.6 188.892 330.299 188.434 329.913 188.053C329.527 187.672 329.066 187.376 328.559 187.183C328.051 186.991 327.51 186.907 326.968 186.937C323.708 187.232 320.817 192.35 320.128 195.192C320.128 195.438 319.636 199.388 319.698 199.375C319.759 199.363 325.307 198.182 327.374 196.718Z" fill="#263238"/>
<path d="M299.215 258.405C299.137 257.966 298.967 257.549 298.716 257.181C298.465 256.813 298.138 256.502 297.758 256.269C297.378 256.037 296.952 255.887 296.51 255.832C296.068 255.776 295.619 255.814 295.193 255.945C292.732 256.793 291.342 261.407 291.379 263.794C291.379 263.942 291.613 265.738 291.748 266.648C291.465 265.947 291.195 265.233 290.912 264.495C290.506 263.425 290.112 262.293 289.681 261.186L289.128 259.426C288.931 258.836 288.808 258.196 288.648 257.655C288.427 256.769 288.242 255.846 288.058 254.923C290.057 254.368 291.958 253.505 293.692 252.364C295.033 251.134 296.398 249.326 296.263 247.443C296.247 247.001 296.138 246.567 295.943 246.17C295.748 245.772 295.471 245.42 295.131 245.137C294.791 244.854 294.395 244.646 293.969 244.526C293.543 244.406 293.096 244.377 292.659 244.441C290.038 244.909 288.021 249.264 287.738 251.626C287.738 251.7 287.738 252.204 287.738 252.857C287.59 251.946 287.43 251.048 287.307 250.125C286.938 247.517 286.655 244.847 286.36 242.178C286.298 241.612 286.225 241.058 286.163 240.504C288.219 239.928 290.177 239.044 291.97 237.884C293.311 236.653 294.676 234.845 294.541 232.963C294.523 232.521 294.412 232.088 294.217 231.691C294.021 231.295 293.745 230.944 293.405 230.661C293.065 230.378 292.67 230.17 292.245 230.049C291.82 229.928 291.374 229.898 290.936 229.961C288.316 230.428 286.298 234.783 286.016 237.146C286.016 237.232 286.016 237.835 286.016 238.499C285.831 237.059 285.634 235.608 285.388 234.181C284.986 231.731 284.423 229.31 283.703 226.934C284.035 226.836 288.181 225.581 289.694 224.264C291.022 223.034 292.4 221.225 292.253 219.343C292.237 218.901 292.127 218.467 291.932 218.069C291.737 217.672 291.461 217.32 291.121 217.037C290.781 216.754 290.385 216.545 289.959 216.426C289.533 216.306 289.086 216.277 288.648 216.341C286.028 216.809 284.01 221.164 283.727 223.526C283.727 223.686 283.654 225.876 283.666 226.651C283.661 226.623 283.661 226.593 283.666 226.565C282.893 224.253 281.917 222.013 280.75 219.872C279.722 217.952 278.58 216.095 277.33 214.311C276.186 212.638 275.042 211.186 274.009 209.907C273.455 209.218 272.926 208.59 272.434 208.024C272.434 208.024 271.549 204.936 271.463 204.739C270.515 202.562 267.403 198.908 264.746 199.178C264.308 199.234 263.886 199.381 263.509 199.61C263.131 199.839 262.806 200.146 262.556 200.509C262.305 200.873 262.134 201.285 262.053 201.719C261.973 202.154 261.985 202.6 262.089 203.029C262.458 204.875 264.278 206.29 265.89 207.065C267.939 207.709 270.077 208.029 272.225 208.012C272.73 208.627 273.259 209.242 273.824 210.005C274.821 211.309 275.94 212.786 277.035 214.471C277.33 214.926 277.626 215.418 277.921 215.886C277.257 215.197 276.334 214.25 276.223 214.176C274.378 212.675 269.937 210.866 267.71 212.318C267.346 212.571 267.04 212.897 266.81 213.276C266.58 213.655 266.433 214.078 266.377 214.518C266.321 214.958 266.359 215.404 266.487 215.828C266.615 216.253 266.83 216.645 267.12 216.981C267.791 217.643 268.596 218.154 269.481 218.479C270.366 218.803 271.31 218.934 272.25 218.863C274.095 218.863 277.589 217.141 278.401 216.772C279.053 217.83 279.631 218.937 280.283 220.13C281.389 222.268 282.303 224.499 283.014 226.799C283.014 226.934 283.014 227.082 283.112 227.217C282.842 226.811 281.206 224.756 281.07 224.596C279.397 222.899 275.178 220.61 272.803 221.816C272.414 222.026 272.072 222.316 271.802 222.667C271.532 223.019 271.339 223.423 271.236 223.853C271.132 224.284 271.121 224.732 271.203 225.167C271.284 225.603 271.457 226.016 271.709 226.38C272.717 227.955 274.932 228.632 276.703 228.767C278.745 228.927 282.977 227.365 283.137 227.303C283.78 229.619 284.273 231.974 284.613 234.353C284.871 236.112 285.068 237.896 285.241 239.705C284.884 239.188 283.346 237.244 283.223 237.121C281.55 235.423 277.33 233.147 274.956 234.34C274.566 234.551 274.225 234.841 273.955 235.192C273.685 235.543 273.492 235.947 273.389 236.378C273.285 236.809 273.274 237.256 273.355 237.692C273.437 238.127 273.609 238.541 273.861 238.905C274.87 240.492 277.084 241.156 278.856 241.292C280.849 241.452 284.908 239.975 285.253 239.852C285.339 240.664 285.413 241.489 285.487 242.313C285.733 244.995 285.954 247.677 286.262 250.322C286.372 251.233 286.508 252.131 286.643 253.029C286.077 252.278 285.007 250.937 284.908 250.827C283.235 249.141 279.016 246.853 276.642 248.058C276.251 248.266 275.909 248.554 275.638 248.904C275.366 249.253 275.172 249.656 275.068 250.086C274.963 250.516 274.951 250.963 275.031 251.398C275.111 251.833 275.283 252.246 275.534 252.61C276.555 254.198 278.77 254.862 280.541 254.997C282.65 254.862 284.724 254.401 286.692 253.632C286.926 255.133 287.184 256.609 287.516 258.048C287.676 258.676 287.799 259.279 287.984 259.894C288.168 260.509 288.316 261.124 288.488 261.665C288.882 262.896 289.239 263.966 289.632 265.073C289.829 265.627 290.026 266.144 290.223 266.685C289.768 265.836 288.993 264.507 288.919 264.397C287.529 262.477 283.703 259.574 281.169 260.398C280.752 260.547 280.371 260.782 280.052 261.088C279.732 261.394 279.48 261.764 279.313 262.174C279.146 262.584 279.067 263.024 279.082 263.467C279.096 263.909 279.204 264.343 279.397 264.741C280.16 266.464 282.251 267.46 283.973 267.866C285.696 268.272 289.989 267.509 290.481 267.411C290.973 268.727 291.465 270.007 291.933 271.2C293.446 274.965 294.836 278.041 295.845 280.182C296.853 282.322 297.481 283.528 297.481 283.528C297.598 283.737 297.792 283.893 298.021 283.962C298.251 284.031 298.498 284.007 298.711 283.897C298.918 283.778 299.072 283.584 299.14 283.355C299.209 283.127 299.187 282.88 299.08 282.667C299.08 282.667 298.453 281.51 297.407 279.406C296.361 277.303 294.947 274.301 293.347 270.61C292.892 269.539 292.425 268.408 291.957 267.239C292.437 267.005 296.189 265.196 297.444 263.695C298.699 262.195 299.634 260.238 299.215 258.405Z" fill="#263238"/>
<path d="M278.401 216.255C278.401 216.255 282.374 213.794 283.518 212.06C284.502 210.571 285.327 208.369 284.748 206.646C284.615 206.225 284.394 205.837 284.101 205.506C283.807 205.176 283.447 204.911 283.045 204.729C282.642 204.547 282.206 204.451 281.764 204.449C281.322 204.446 280.884 204.537 280.48 204.715C278.019 205.847 277.281 210.583 277.589 212.945C277.589 213.142 278.401 216.28 278.401 216.255Z" fill="#263238"/>
<path d="M338.95 196.718C341.005 198.243 346.639 199.375 346.639 199.375C346.639 199.375 346.27 195.438 346.208 195.192C345.556 192.35 342.641 187.232 339.381 186.937C338.839 186.905 338.296 186.988 337.788 187.18C337.28 187.371 336.818 187.667 336.432 188.049C336.046 188.431 335.744 188.889 335.546 189.395C335.349 189.901 335.259 190.442 335.284 190.985C335.309 193.236 337.191 195.364 338.95 196.718Z" fill="#263238"/>
<path d="M362.324 251.282C359.064 251.417 355.877 256.375 355.09 259.193C355.09 259.353 354.746 261.21 354.573 262.391C354.573 261.678 354.573 261.001 354.573 260.275C354.573 258.836 354.5 257.396 354.438 255.858C354.438 255.12 354.34 254.37 354.278 253.607C354.217 252.844 354.106 252.057 354.02 251.282C353.786 249.473 353.466 247.665 353.097 245.832C354.327 245.832 358.83 245.696 360.81 244.786C362.791 243.875 365.055 242.153 365.547 239.865C365.684 239.338 365.708 238.789 365.617 238.253C365.527 237.716 365.324 237.205 365.022 236.753C364.72 236.301 364.325 235.918 363.864 235.63C363.404 235.341 362.887 235.153 362.348 235.079C359.1 234.697 355.201 239.126 353.995 241.796C353.921 241.956 353.269 243.961 352.937 245.069C352.704 243.974 352.482 242.879 352.224 241.784C351.449 238.61 350.563 235.423 349.702 232.237C349.431 231.265 349.185 230.28 348.927 229.309C349.628 229.309 354.746 229.309 356.911 228.25C359.076 227.192 361.155 225.618 361.647 223.329C361.782 222.803 361.805 222.254 361.713 221.719C361.622 221.183 361.419 220.673 361.117 220.221C360.815 219.77 360.422 219.387 359.962 219.098C359.502 218.809 358.986 218.62 358.448 218.543C355.201 218.174 351.313 222.603 350.108 225.261C350.009 225.458 349.075 228.349 348.878 229.099C348.312 226.946 347.771 224.806 347.328 222.665C346.715 219.788 346.291 216.874 346.061 213.942C346.442 213.942 351.855 213.942 354.094 212.884C356.074 211.974 358.338 210.251 358.842 207.963C358.975 207.436 358.996 206.887 358.903 206.351C358.81 205.816 358.606 205.306 358.303 204.854C358 204.403 357.606 204.02 357.146 203.731C356.685 203.442 356.169 203.254 355.631 203.177C352.384 202.808 348.496 207.237 347.291 209.894C347.192 210.104 346.196 213.216 346.061 213.782C346.061 213.622 346.061 213.438 346.061 213.265C345.896 210.314 345.995 207.354 346.356 204.419C346.54 202.795 346.799 201.245 347.094 199.757C348.152 199.867 352.851 200.286 355.004 199.56C357.157 198.834 359.519 197.419 360.257 195.229C360.446 194.721 360.527 194.178 360.494 193.637C360.461 193.095 360.314 192.567 360.064 192.085C359.813 191.604 359.464 191.181 359.04 190.843C358.615 190.505 358.125 190.26 357.6 190.123C354.401 189.398 350.046 193.371 348.558 195.881C348.484 196.017 347.807 197.493 347.328 198.588C347.463 197.911 347.598 197.21 347.746 196.57C348.299 194.11 348.976 191.981 349.542 190.062C349.886 188.979 350.219 187.995 350.538 187.085C351.609 186.654 355.89 184.895 357.44 183.283C358.99 181.671 360.454 179.297 360.097 177.021C360.033 176.481 359.856 175.961 359.578 175.494C359.299 175.027 358.926 174.625 358.481 174.312C358.036 174 357.531 173.785 356.997 173.681C356.464 173.578 355.915 173.588 355.385 173.711C352.224 174.535 350.194 180.072 350.022 182.988C350.022 183.234 350.243 187.208 350.292 187.183H350.354C350.034 188.056 349.69 188.992 349.333 190.025C348.705 191.932 348.004 194.097 347.401 196.509C346.72 199.096 346.19 201.721 345.814 204.37C345.385 207.335 345.221 210.333 345.322 213.327V213.438C345.003 212.539 344.018 210.042 343.92 209.87C342.542 207.286 338.36 203.128 335.149 203.718C334.43 203.847 333.768 204.195 333.254 204.715C332.743 204.193 332.08 203.844 331.36 203.718C328.149 203.14 323.979 207.298 322.601 209.87C322.503 210.042 321.506 212.539 321.186 213.438C321.186 213.438 321.186 213.364 321.186 213.327C321.284 210.332 321.115 207.335 320.682 204.37C320.304 201.722 319.779 199.098 319.107 196.509C318.505 194.048 317.803 191.932 317.164 190.025C316.807 188.992 316.475 188.056 316.143 187.183H316.204C316.204 187.183 316.487 183.234 316.475 182.988C316.315 180.072 314.273 174.535 311.111 173.711C310.582 173.588 310.033 173.578 309.499 173.681C308.966 173.785 308.46 174 308.016 174.312C307.571 174.625 307.197 175.027 306.919 175.494C306.64 175.961 306.463 176.481 306.4 177.021C306.043 179.297 307.544 181.72 309.057 183.283C310.57 184.845 314.888 186.654 315.958 187.085C316.278 187.995 316.61 188.979 316.967 190.062C317.557 191.981 318.197 194.159 318.751 196.57C318.898 197.21 319.034 197.911 319.181 198.588C318.701 197.493 318.037 196.017 317.951 195.881C316.462 193.421 312.108 189.398 308.921 190.123C308.395 190.258 307.903 190.502 307.478 190.84C307.052 191.177 306.703 191.601 306.452 192.082C306.201 192.564 306.055 193.094 306.023 193.636C305.99 194.178 306.073 194.721 306.264 195.229C307.002 197.419 309.438 198.92 311.505 199.56C313.572 200.2 318.357 199.867 319.427 199.757C319.71 201.245 319.968 202.795 320.153 204.419C320.518 207.353 320.621 210.313 320.461 213.265C320.461 213.438 320.461 213.622 320.399 213.782C320.264 213.216 319.255 210.091 319.169 209.894C317.939 207.237 314.064 202.808 310.816 203.177C310.278 203.253 309.762 203.442 309.303 203.731C308.843 204.02 308.449 204.403 308.147 204.855C307.845 205.307 307.642 205.817 307.551 206.352C307.46 206.888 307.482 207.437 307.617 207.963C308.11 210.214 310.373 211.937 312.354 212.884C314.593 213.917 320.005 213.942 320.387 213.942C320.143 216.882 319.712 219.804 319.095 222.689C318.64 224.83 318.099 226.971 317.533 229.124C317.336 228.373 316.401 225.433 316.303 225.285C315.072 222.628 311.197 218.199 307.95 218.568C307.412 218.644 306.896 218.833 306.436 219.122C305.977 219.412 305.583 219.794 305.281 220.246C304.979 220.698 304.776 221.208 304.685 221.743C304.593 222.279 304.616 222.828 304.751 223.354C305.243 225.605 307.507 227.328 309.487 228.275C311.652 229.272 316.782 229.333 317.471 229.333C317.213 230.305 316.967 231.289 316.696 232.261C315.835 235.448 314.949 238.634 314.236 241.808C313.965 242.903 313.744 243.998 313.51 245.093C313.178 243.986 312.526 241.981 312.452 241.821C311.222 239.151 307.347 234.722 304.099 235.103C303.561 235.18 303.046 235.369 302.586 235.658C302.126 235.947 301.732 236.33 301.431 236.781C301.129 237.233 300.925 237.743 300.834 238.279C300.743 238.814 300.766 239.363 300.901 239.889C301.393 242.141 303.656 243.851 305.637 244.81C307.617 245.77 312.071 245.844 313.35 245.856C312.981 247.689 312.661 249.547 312.427 251.306C312.341 252.081 312.206 252.881 312.169 253.632C312.132 254.382 312.058 255.145 312.009 255.883C311.948 257.421 311.898 258.86 311.886 260.3C311.886 261.026 311.886 261.702 311.886 262.416C311.714 261.186 311.406 259.377 311.357 259.217C310.57 256.4 307.396 251.442 304.124 251.306C303.581 251.302 303.044 251.412 302.546 251.629C302.049 251.845 301.603 252.164 301.236 252.564C300.87 252.964 300.591 253.437 300.419 253.951C300.247 254.466 300.185 255.011 300.236 255.551C300.384 257.864 302.365 259.894 304.185 261.1C306.006 262.305 311.074 263.228 311.874 263.351C311.874 265.086 311.874 266.759 311.874 268.334C312.009 273.316 312.304 277.45 312.55 280.354C312.797 283.257 313.006 284.906 313.006 284.906C313.076 285.184 313.248 285.427 313.487 285.586C313.726 285.745 314.016 285.809 314.3 285.766C314.584 285.723 314.842 285.576 315.023 285.353C315.204 285.13 315.297 284.848 315.281 284.561C315.281 284.561 315.048 282.962 314.74 280.095C314.433 277.229 314.051 273.144 313.805 268.223C313.744 266.808 313.682 265.295 313.645 263.745C314.457 263.671 319.439 263.166 321.469 262.01C323.499 260.853 325.48 259.02 325.775 256.732C325.862 256.196 325.835 255.648 325.697 255.123C325.559 254.598 325.312 254.108 324.972 253.685C324.632 253.261 324.207 252.914 323.724 252.665C323.242 252.417 322.712 252.272 322.17 252.241C318.898 252.155 315.404 256.904 314.433 259.623C314.371 259.795 313.867 261.961 313.645 263.068C313.645 262.133 313.645 261.21 313.645 260.226C313.645 258.836 313.645 257.347 313.645 255.908C313.645 255.169 313.731 254.419 313.768 253.656C313.805 252.893 313.904 252.155 313.965 251.405C314.088 250.285 314.26 249.153 314.445 248.009C315.909 248.083 320.079 248.206 322.035 247.455C323.991 246.705 326.452 245.106 327.079 242.891C327.248 242.375 327.306 241.829 327.25 241.289C327.193 240.749 327.024 240.227 326.752 239.757C326.481 239.286 326.113 238.879 325.673 238.56C325.234 238.242 324.732 238.02 324.2 237.908C320.99 237.318 316.819 241.489 315.429 244.06L314.888 245.401C315.085 244.294 315.294 243.186 315.54 242.079C316.229 238.917 317.041 235.718 317.84 232.507L318.32 230.502C319.55 230.563 324.077 230.748 326.132 229.961C328.186 229.173 330.548 227.611 331.188 225.396C331.354 224.879 331.411 224.333 331.353 223.793C331.295 223.253 331.124 222.731 330.852 222.261C330.579 221.791 330.211 221.384 329.771 221.066C329.33 220.747 328.828 220.525 328.297 220.413C325.086 219.823 320.916 223.994 319.526 226.565C319.526 226.663 319.206 227.34 318.898 228.115C319.304 226.368 319.685 224.621 320.018 222.874C320.6 219.881 320.979 216.851 321.149 213.807C321.838 213.807 326.968 214.127 329.195 213.265C330.757 212.694 332.152 211.742 333.254 210.497C334.357 211.742 335.752 212.694 337.314 213.265C339.541 214.127 344.695 213.844 345.359 213.807C345.536 216.851 345.914 219.88 346.491 222.874C346.823 224.621 347.205 226.368 347.611 228.115C347.303 227.34 347.032 226.663 346.983 226.565C345.605 223.994 341.435 219.823 338.212 220.413C337.681 220.525 337.179 220.747 336.739 221.066C336.299 221.384 335.931 221.792 335.66 222.262C335.388 222.732 335.219 223.254 335.163 223.794C335.106 224.334 335.164 224.88 335.333 225.396C335.973 227.611 338.347 229.173 340.377 229.961C342.407 230.748 346.983 230.563 348.189 230.502C348.349 231.179 348.509 231.843 348.681 232.507C349.468 235.718 350.28 238.917 350.981 242.079C351.227 243.186 351.424 244.294 351.633 245.401C351.363 244.724 351.129 244.171 351.08 244.06C349.702 241.489 345.532 237.318 342.309 237.908C341.777 238.02 341.275 238.242 340.835 238.56C340.396 238.879 340.028 239.286 339.756 239.757C339.485 240.227 339.315 240.749 339.259 241.289C339.203 241.829 339.261 242.375 339.43 242.891C340.07 245.106 342.444 246.668 344.474 247.455C346.503 248.243 350.625 248.083 352.076 248.009C352.248 249.153 352.433 250.285 352.544 251.405C352.617 252.155 352.728 252.881 352.753 253.656C352.777 254.431 352.827 255.169 352.863 255.908C352.863 257.347 352.863 258.836 352.863 260.226C352.863 261.21 352.863 262.133 352.863 263.068C352.63 261.961 352.125 259.795 352.064 259.623C351.092 256.867 347.598 252.118 344.326 252.241C343.784 252.272 343.255 252.417 342.772 252.665C342.289 252.914 341.864 253.261 341.525 253.685C341.185 254.108 340.938 254.598 340.799 255.123C340.661 255.648 340.635 256.196 340.722 256.732C341.017 259.02 343.182 260.927 345.027 262.01C346.872 263.093 352.039 263.671 352.851 263.745C352.851 265.295 352.765 266.808 352.691 268.223C352.458 273.144 352.076 277.241 351.769 280.095C351.461 282.95 351.215 284.561 351.215 284.561C351.2 284.848 351.292 285.13 351.473 285.353C351.655 285.576 351.913 285.723 352.197 285.766C352.481 285.809 352.77 285.745 353.01 285.586C353.249 285.427 353.42 285.184 353.491 284.906C353.491 284.906 353.7 283.245 353.958 280.354C354.217 277.463 354.5 273.316 354.623 268.334C354.623 266.759 354.684 265.086 354.684 263.351C355.484 263.228 360.417 262.404 362.385 261.1C364.353 259.795 366.186 257.864 366.322 255.551C366.378 254.999 366.316 254.442 366.139 253.917C365.962 253.391 365.674 252.91 365.295 252.505C364.916 252.101 364.455 251.782 363.942 251.571C363.43 251.36 362.878 251.261 362.324 251.282Z" fill="#263238"/>
<path d="M68.274 313.88C68.274 313.88 68.4831 322.233 69.8978 326.712C70.9262 329.776 72.1591 332.769 73.5883 335.668C73.5883 335.668 68.2986 338.522 65.8505 338.732C63.4025 338.941 60.1548 327.93 60.1548 320.4C60.1548 312.871 62.9842 310.619 68.274 313.88Z" fill="white" stroke="#263238" stroke-width="0.48509" stroke-linecap="round" stroke-linejoin="round"/>
<path d="M53.5238 291.992C53.5238 291.992 62.1351 291.673 65.4197 294.121C68.7042 296.569 69.8975 307.359 70.9186 311.64L71.9396 315.922C69.5439 316.867 67.0754 317.616 64.5585 318.161C63.5992 318.232 62.6457 318.368 61.7045 318.567C61.7045 318.567 59.1088 303.754 56.058 299.423C54.5153 297.195 52.8132 295.082 50.9651 293.1C50.9651 293.1 49.5872 291.451 53.5238 291.992Z" fill="white" stroke="#263238" stroke-width="0.48509" stroke-linecap="round" stroke-linejoin="round"/>
<path d="M46.4872 278.841C45.7758 281.566 44.678 284.177 43.2272 286.591C40.7668 290.664 39.7581 293.506 32.2294 293.715C24.7007 293.924 20.8256 300.063 17.6026 318.358C14.3795 336.652 12.5096 356.854 18.0085 369.686C23.5074 382.518 39.7458 381.263 50.3499 377.425C60.9541 373.586 63.3898 361.541 63.5867 348.513C63.7835 335.484 63.7958 314.901 61.7537 304.505C59.7116 294.109 53.819 291.882 51.1619 291.07C48.5047 290.258 51.9861 285.361 51.9861 285.361L46.4872 278.841Z" fill="white"/>
<g style="mix-blend-mode:multiply" opacity="0.4">
<path d="M24.984 318.813C24.984 318.813 23.1879 323.734 26.3741 327.561C29.5602 331.387 37.4457 329.554 35.9203 331.338C34.3948 333.121 27.5673 335.324 26.3741 337.108C26.0244 337.557 25.8185 338.102 25.7834 338.67C25.7483 339.239 25.8855 339.805 26.1772 340.294C26.1772 340.294 19.9033 341.414 19.4605 340.356C19.0176 339.298 23.151 324.472 23.151 324.472L24.984 318.813Z" fill="#7BC678"/>
</g>
<g style="mix-blend-mode:multiply" opacity="0.4">
<path d="M26.9029 345.867C26.9029 345.867 22.5358 350.641 22.7326 352.019C22.9294 353.397 26.9029 350.235 26.1156 352.216C25.3283 354.197 21.933 357.395 20.9365 358.982C19.9401 360.57 16.0158 363.387 16.0158 363.387L14.6134 352.622L14.3428 350.739L26.9029 345.867Z" fill="#7BC678"/>
</g>
<path d="M46.4872 278.841C45.7758 281.566 44.678 284.177 43.2272 286.591C40.7668 290.664 39.7581 293.506 32.2294 293.715C24.7007 293.924 20.8256 300.063 17.6026 318.358C14.3795 336.652 12.5096 356.854 18.0085 369.686C23.5074 382.518 39.7458 381.263 50.3499 377.425C60.9541 373.586 63.3898 361.541 63.5867 348.513C63.7835 335.484 63.7958 314.901 61.7537 304.505C59.7116 294.109 53.819 291.882 51.1619 291.07C48.5047 290.258 51.9861 285.361 51.9861 285.361L46.4872 278.841Z" stroke="#263238" stroke-width="0.48509" stroke-linecap="round" stroke-linejoin="round"/>
<path d="M53.524 291.992C52.7628 291.622 51.9729 291.313 51.1621 291.07C48.5172 290.258 51.9863 285.361 51.9863 285.361L46.4874 278.841C45.776 281.566 44.6782 284.177 43.2274 286.591C41.1484 290.049 40.0904 292.62 35.1943 293.444C36.7472 295.682 37.881 298.183 38.5404 300.826C39.7706 306.129 42.4032 314.679 47.2993 312.649C51.9494 310.718 55.48 299.559 53.524 291.992Z" fill="white"/>
<g style="mix-blend-mode:multiply" opacity="0.4">
<path d="M40.8284 293.346C39.5384 294.262 38.0978 294.945 36.572 295.363L35.3418 293.26C35.3418 293.26 40.4224 293.887 45.5031 282.187C46.6079 284.354 48.1692 286.255 50.0793 287.76L44.0146 288.535" fill="#7BC678"/>
</g>
<path d="M53.524 291.992C52.7628 291.622 51.9729 291.313 51.1621 291.07C48.5172 290.258 51.9863 285.361 51.9863 285.361L46.4874 278.841C45.776 281.566 44.6782 284.177 43.2274 286.591C41.1484 290.049 40.0904 292.62 35.1943 293.444C36.7472 295.682 37.881 298.183 38.5404 300.826C39.7706 306.129 42.4032 314.679 47.2993 312.649C51.9494 310.718 55.48 299.559 53.524 291.992Z" stroke="#263238" stroke-width="0.48509" stroke-linecap="round" stroke-linejoin="round"/>
<path d="M25.4883 316.918L31.3439 311.714" stroke="#263238" stroke-width="0.48509" stroke-linecap="round" stroke-linejoin="round"/>
<path d="M32.2295 293.715C32.2295 293.715 33.9517 296.077 35.2557 302.918C36.5597 309.758 40.4594 315.946 44.3714 317.238C48.2833 318.53 50.227 317.238 50.227 317.238" stroke="#263238" stroke-width="0.48509" stroke-linecap="round" stroke-linejoin="round"/>
<path d="M12.8792 316.328C12.8792 316.328 9.82833 343.395 9.6192 348.094C9.41007 352.794 11.243 351.564 14.3062 350.752C17.3693 349.94 34.8748 342.14 38.9098 340.762C42.9448 339.384 43.5968 338.929 46.8567 339.335C49.7105 339.762 52.585 340.037 55.468 340.159C57.5101 340.159 55.2588 335.471 52.208 334.659C49.1572 333.847 49.354 334.044 45.8972 334.856C42.4404 335.668 36.9292 338.117 31.0243 339.335C25.1195 340.553 20.0265 340.971 19.4237 340.356C18.8209 339.74 23.1143 322.024 23.1143 322.024L12.8792 316.328Z" fill="white" stroke="#263238" stroke-width="0.48509" stroke-linecap="round" stroke-linejoin="round"/>
<path d="M35.1943 293.444C32.9235 293.715 30.6298 293.736 28.3545 293.506C26.2733 293.358 24.184 293.645 22.2204 294.351C20.2568 295.056 18.462 296.164 16.9507 297.603C13.6907 300.851 10.7998 311.444 9.56964 314.101C8.33946 316.758 7.9458 317.964 7.9458 317.964L23.0155 324.485L29.3263 306.559" fill="white"/>
<g style="mix-blend-mode:multiply" opacity="0.4">
<path d="M35.0344 293.309C32.0725 293.628 29.0944 293.771 26.1156 293.739C24.3162 293.766 22.5449 294.19 20.9285 294.981C19.3122 295.772 17.8908 296.911 16.7663 298.316C13.9737 301.503 8.25342 317.841 8.25342 317.841L11.7594 319.342C11.7594 319.342 15.573 301.503 19.9401 298.722C23.7795 296.433 28.2076 295.325 32.6725 295.536C33.9027 295.536 35.2805 295.45 36.1539 295.363L35.0344 293.309Z" fill="#7BC678"/>
</g>
<path d="M35.1943 293.444C32.9235 293.715 30.6298 293.736 28.3545 293.506C26.2733 293.358 24.184 293.645 22.2204 294.351C20.2568 295.056 18.462 296.164 16.9507 297.603C13.6907 300.851 10.7998 311.444 9.56964 314.101C8.33946 316.758 7.9458 317.964 7.9458 317.964L23.0155 324.485L29.3263 306.559" stroke="#263238" stroke-width="0.48509" stroke-linecap="round" stroke-linejoin="round"/>
<path d="M16.0405 361.578C16.0405 361.578 22.1914 356.042 26.4601 355.722" stroke="#263238" stroke-width="0.48509" stroke-linecap="round" stroke-linejoin="round"/>
<path d="M27.1122 353.065C24.0883 354.397 21.1506 355.918 18.3164 357.617" stroke="#263238" stroke-width="0.48509" stroke-linecap="round" stroke-linejoin="round"/>
<path d="M65.2502 273.168C67.6535 263.62 65.158 254.761 59.6764 253.381C54.1947 252.001 47.8027 258.622 45.3994 268.17C42.9961 277.718 45.4916 286.576 50.9732 287.956C56.4549 289.336 62.8469 282.715 65.2502 273.168Z" fill="white"/>
<g style="mix-blend-mode:multiply" opacity="0.4">
<path d="M49.932 287.588C49.2431 286.21 48.3328 282.901 48.9848 280.809C49.9812 277.635 55.3448 274.067 55.3448 274.067C55.3448 274.067 52.8845 274.657 50.4241 275.039C47.9637 275.42 44.5562 275.974 44.5562 275.974L45.405 281.929C46.549 284.611 47.9391 286.801 49.932 287.588Z" fill="#7BC678"/>
</g>
<path d="M65.2502 273.168C67.6535 263.62 65.158 254.761 59.6764 253.381C54.1947 252.001 47.8027 258.622 45.3994 268.17C42.9961 277.718 45.4916 286.576 50.9732 287.956C56.4549 289.336 62.8469 282.715 65.2502 273.168Z" stroke="#263238" stroke-width="0.48509" stroke-linecap="round" stroke-linejoin="round"/>
<g style="mix-blend-mode:multiply" opacity="0.4">
<path d="M45.4786 282.458C44.5437 284.303 41.6404 290.061 38.6388 291.956C37.7916 292.502 36.8667 292.916 35.8955 293.186" fill="#7BC678"/>
</g>
<g style="mix-blend-mode:multiply" opacity="0.4">
<path d="M50.3745 312.649C50.3745 312.649 51.1741 323.98 50.3745 326.773C49.5749 329.566 46.401 329.357 47.988 330.944C49.7166 332.383 51.5833 333.648 53.5607 334.721L56.3409 337.514L56.9683 333.281C56.9683 333.281 54.9754 333.884 52.9825 326.921C51.7106 322.246 50.8381 317.472 50.3745 312.649Z" fill="#7BC678"/>
</g>
<path d="M59.847 275.629C59.2005 276.566 58.7795 277.64 58.6168 278.767C58.6168 279.136 58.6168 279.468 58.6168 279.739C58.6278 279.868 58.6107 279.998 58.5665 280.12C58.5223 280.242 58.4523 280.353 58.361 280.446C58.2698 280.538 58.1597 280.61 58.0382 280.655C57.9167 280.701 57.7867 280.72 57.6573 280.711L56.1934 280.6" stroke="#263238" stroke-width="0.48509" stroke-linecap="round" stroke-linejoin="round"/>
<path d="M53.5856 283.553C52.9056 283.628 52.2223 283.441 51.6757 283.029C51.1291 282.618 50.7606 282.013 50.6455 281.338" stroke="#263238" stroke-width="0.48509" stroke-linecap="round" stroke-linejoin="round"/>
<path d="M55.8 275.26L55.0619 276.737C54.6306 276.943 54.1433 277 53.676 276.9C53.2087 276.8 52.7877 276.548 52.4785 276.183" stroke="#263238" stroke-width="0.48509" stroke-linecap="round" stroke-linejoin="round"/>
<path d="M61.68 277.475L60.5851 278.951C60.5851 278.951 59.1089 278.951 59.1089 277.844" stroke="#263238" stroke-width="0.48509" stroke-linecap="round" stroke-linejoin="round"/>
<path d="M67.5112 264.384C69.9715 257.138 63.9806 249.621 55.0372 249.781C46.0938 249.941 39.8321 258.688 36.8674 264.68C34.095 267.458 31.7115 270.6 29.7816 274.018C26.091 280.329 26.091 283.995 23.2616 288.068C20.4322 292.14 12.067 292.349 7.17088 297.652C2.27477 302.954 2.25016 309.057 4.52599 313.129C6.80182 317.201 8.21653 322.492 5.33791 326.158C2.45929 329.824 -0.357816 334.77 1.88111 343.075C2.30221 344.929 3.27937 346.611 4.68191 347.895C6.08446 349.178 7.84554 350.004 9.72965 350.26C9.6068 349.565 9.56961 348.859 9.61893 348.156C9.77886 344.465 11.6487 327.474 12.473 319.957L7.9951 318.013C7.9951 318.013 8.40106 316.783 9.61893 314.15C10.8368 311.517 13.6908 300.9 17 297.652C18.5123 296.215 20.3076 295.11 22.2712 294.407C24.2347 293.703 26.3234 293.417 28.4038 293.567C30.6791 293.797 32.9728 293.777 35.2436 293.506C36.6151 293.339 37.9255 292.84 39.0614 292.054C40.1973 291.267 41.1247 290.216 41.7635 288.99L42.0834 288.461V288.4C42.4278 287.834 42.7723 287.231 43.1536 286.604C44.0368 285.115 44.794 283.556 45.4172 281.941C44.7962 280.016 44.4646 278.009 44.433 275.986C48.4434 275.851 59.5396 274.867 65.1492 268.272C65.4814 267.866 65.7889 267.46 66.0596 267.042C65.9794 269.118 65.6826 271.179 65.1738 273.193C64.1387 277.819 61.8042 282.054 58.4447 285.398L57.8543 285.902L57.4852 286.198C57.3007 286.333 57.1285 286.468 56.9439 286.579C56.8144 286.674 56.6788 286.76 56.538 286.837C56.3713 286.949 56.1988 287.052 56.0213 287.145L55.5907 287.366L55.0741 287.588L54.6435 287.748L54.1268 287.908L53.6963 288.019C52.7772 288.228 51.8228 288.228 50.9038 288.019L50.547 287.896C50.1555 288.63 50.0295 289.478 50.1902 290.295C50.2536 290.5 50.3699 290.686 50.5275 290.833C50.6851 290.98 50.8785 291.083 51.0883 291.131C51.8779 291.369 52.6472 291.669 53.3887 292.029C52.9202 297.003 52.098 301.936 50.9284 306.793C48.8863 315.344 51.1252 323.488 53.5732 329.394C56.0213 335.299 63.55 338.965 66.1949 335.545C68.8398 332.125 68.0278 328.422 66.404 320.265C64.7802 312.108 60.4992 300.309 60.4992 291.34C60.4992 282.371 65.7889 279.529 68.4461 274.239C70.3529 270.413 68.6552 266.378 67.5112 264.384Z" fill="#263238"/>
<path d="M65.0262 261.641C65.0262 261.641 55.6277 269.872 46.5735 270.757C37.5194 271.643 36.5845 271.631 36.5845 271.631" stroke="white" stroke-width="0.345985" stroke-linecap="round" stroke-linejoin="round"/>
<path d="M62.9718 255.465C62.9718 255.465 54.4467 265.172 47.3978 267.522C40.3488 269.872 37.4087 269.872 37.4087 269.872" stroke="white" stroke-width="0.345985" stroke-linecap="round" stroke-linejoin="round"/>
<path d="M57.9771 251.946C57.9771 251.946 55.6275 259.328 50.0425 262.822" stroke="white" stroke-width="0.345985" stroke-linecap="round" stroke-linejoin="round"/>
<path d="M41.8127 279.566C41.8127 279.566 41.5174 288.978 36.2277 290.442C30.9379 291.906 25.0699 288.978 18.304 292.497C15.6632 293.918 13.5178 296.109 12.1531 298.779C10.7884 301.45 10.2692 304.472 10.6645 307.445" stroke="white" stroke-width="0.345985" stroke-linecap="round" stroke-linejoin="round"/>
<path d="M8.61037 347.159C7.20889 345.125 6.27192 342.808 5.86586 340.371C5.45981 337.935 5.59461 335.439 6.26073 333.06C8.61037 325.125 10.3695 322.184 10.3695 322.184" stroke="white" stroke-width="0.345985" stroke-linecap="round" stroke-linejoin="round"/>
<path d="M60.6592 294.847C60.6592 294.847 62.1231 306.018 57.1286 313.068C52.134 320.117 55.3694 329.824 55.3694 329.824" stroke="white" stroke-width="0.345985" stroke-linecap="round" stroke-linejoin="round"/>
<path d="M60.9172 284.561C60.9172 284.561 61.2125 287.797 57.0914 296.028C52.9703 304.259 51.8016 306.904 51.5063 312.785" stroke="white" stroke-width="0.345985" stroke-linecap="round" stroke-linejoin="round"/>
<path d="M89.1255 378.138C89.1255 378.138 95.7315 377.498 99.5574 379.196C103.383 380.894 104.244 383.662 105.093 381.116C105.942 378.569 105.942 377.068 102.756 375.37C99.5697 373.672 98.278 374.73 97.0109 373.451C96.3889 372.783 95.6718 372.211 94.8827 371.753C94.8827 371.753 91.4751 371.322 91.2537 373.242C91.0323 375.161 87.8584 375.788 87.8584 375.788L89.1255 378.138Z" fill="white" stroke="#263238" stroke-width="0.48509" stroke-miterlimit="10"/>
<path d="M116.743 328.139C114.504 323.045 105.167 326.539 94.3412 335.262C80.3295 346.556 69.4424 349.189 63.5868 349.644V349.46C60.5359 348.033 56.2057 347.971 51.0512 348.808C50.8913 348.574 50.7314 348.34 50.5838 348.094C40.7423 332.826 38.1589 330.181 34.899 332.826C31.639 335.471 27.9731 339.544 29.1909 352.179C29.2996 353.173 29.4889 354.156 29.7568 355.119C24.912 357.422 20.3054 360.195 16.0034 363.399C16.4767 365.551 17.1437 367.655 17.9963 369.686C23.4706 382.481 39.6844 381.312 50.2762 377.462C53.4791 379.194 56.9592 380.356 60.5605 380.894C68.9503 381.94 74.6215 381.632 77.9429 380.365L83.5772 384.966C92.446 378.237 99.9595 369.887 105.72 360.36C108.529 355.609 111.019 350.677 113.175 345.597C116.681 337.661 117.875 330.698 116.743 328.139Z" fill="#263238"/>
<path d="M50.5592 348.045C51.7321 349.879 53.0138 351.642 54.3974 353.323L92.6436 346.458L80.6002 336.812L46.4873 341.807C47.656 343.604 49.0215 345.695 50.5592 348.045Z" fill="#7BC678" stroke="#263238" stroke-width="0.48509" stroke-linecap="round" stroke-linejoin="round"/>
<path opacity="0.5" d="M50.5592 348.045C51.7321 349.879 53.0138 351.642 54.3974 353.323L92.6436 346.458L80.6002 336.812L46.4873 341.807C47.656 343.604 49.0215 345.695 50.5592 348.045Z" fill="white" stroke="#263238" stroke-width="0.52825" stroke-linecap="round" stroke-linejoin="round"/>
<path d="M59.0722 325.444L53.1182 351.736C53.5364 352.29 53.967 352.831 54.3483 353.36L92.6438 346.458L100.209 318.924L59.0722 325.444Z" fill="#7BC678" stroke="#263238" stroke-width="0.48509" stroke-linecap="round" stroke-linejoin="round"/>
<path d="M78.558 340.737C77.8175 340.947 77.0315 340.934 76.2983 340.699C75.5652 340.465 74.9176 340.019 74.4366 339.418C73.9556 338.817 73.6625 338.088 73.5941 337.321C73.5257 336.554 73.685 335.784 74.052 335.108C74.4191 334.431 74.9776 333.878 75.6575 333.517C76.3375 333.156 77.1088 333.004 77.8748 333.08C78.6408 333.155 79.3675 333.455 79.9639 333.942C80.5603 334.429 80.9998 335.08 81.2275 335.816C81.5185 336.822 81.4016 337.903 80.902 338.824C80.4025 339.745 79.5604 340.432 78.558 340.737Z" fill="white"/>
<path opacity="0.5" d="M59.0722 325.444L53.1182 351.736C53.5364 352.29 53.967 352.831 54.3483 353.36L92.6438 346.458L100.209 318.924L59.0722 325.444Z" fill="white" stroke="#263238" stroke-width="0.52825" stroke-linecap="round" stroke-linejoin="round"/>
<path d="M78.558 340.737C77.8175 340.947 77.0315 340.934 76.2983 340.699C75.5652 340.465 74.9176 340.019 74.4366 339.418C73.9556 338.817 73.6625 338.088 73.5941 337.321C73.5257 336.554 73.685 335.784 74.052 335.108C74.4191 334.431 74.9776 333.878 75.6575 333.517C76.3375 333.156 77.1088 333.004 77.8748 333.08C78.6408 333.155 79.3675 333.455 79.9639 333.942C80.5603 334.429 80.9998 335.08 81.2275 335.816C81.5185 336.822 81.4016 337.903 80.902 338.824C80.4025 339.745 79.5604 340.432 78.558 340.737Z" fill="white" stroke="#263238" stroke-width="0.52825" stroke-linecap="round" stroke-linejoin="round"/>
<path d="M76.6515 378.224C76.6515 378.224 71.3863 382.137 68.4216 383.761C65.4568 385.385 64.5096 384.831 61.6679 387.538C58.8262 390.244 56.415 392.127 55.7384 393.209C55.0618 394.292 54.2499 395.362 53.8439 392.939C53.6779 391.695 53.8404 390.43 54.3153 389.269C54.7901 388.107 55.5607 387.091 56.5503 386.32C58.4325 384.966 61.0036 384.425 61.0036 382.629C60.9416 381.845 61.1887 381.067 61.692 380.463C62.1954 379.858 62.9152 379.474 63.6977 379.393C65.1862 379.393 66.158 380.87 68.9628 379.393C70.8907 378.202 72.4728 376.527 73.5514 374.533L76.6515 378.224Z" fill="white" stroke="#263238" stroke-width="0.48509" stroke-miterlimit="10"/>
<path d="M30.0767 356.473C30.0767 356.473 35.8954 370.387 49.3044 376.711" stroke="white" stroke-width="0.345985" stroke-miterlimit="10"/>
<path d="M75.3105 367.865C75.3105 367.865 83.6389 363.694 95.8422 342.607" stroke="white" stroke-width="0.345985" stroke-miterlimit="10"/>
<path d="M52.9829 352.167C52.9829 352.167 61.8033 365.097 72.0876 369.502" stroke="white" stroke-width="0.345985" stroke-miterlimit="10"/>
<path d="M211.282 220.524H135.749C130.538 220.524 126.313 224.749 126.313 229.961V389.432C126.313 394.644 130.538 398.869 135.749 398.869H211.282C216.493 398.869 220.717 394.644 220.717 389.432V229.961C220.717 224.749 216.493 220.524 211.282 220.524Z" fill="#263238"/>
<path d="M216.522 240.111H130.508V379.295H216.522V240.111Z" fill="white"/>
<g style="mix-blend-mode:multiply" opacity="0.4">
<path d="M216.522 332.519L136.339 379.282H216.522V332.519Z" fill="#7BC678"/>
</g>
<path d="M216.522 240.111H130.508V379.295H216.522V240.111Z" stroke="#263238" stroke-width="0.52825" stroke-miterlimit="10"/>
<path d="M182.865 230.367H164.166C163.84 230.367 163.527 230.237 163.296 230.006C163.066 229.775 162.936 229.463 162.936 229.136C162.936 228.81 163.066 228.497 163.296 228.266C163.527 228.036 163.84 227.906 164.166 227.906H182.865C183.191 227.906 183.504 228.036 183.735 228.266C183.966 228.497 184.095 228.81 184.095 229.136C184.095 229.463 183.966 229.775 183.735 230.006C183.504 230.237 183.191 230.367 182.865 230.367Z" fill="#7BC678"/>
<path opacity="0.4" d="M182.865 230.367H164.166C163.84 230.367 163.527 230.237 163.296 230.006C163.066 229.775 162.936 229.463 162.936 229.136C162.936 228.81 163.066 228.497 163.296 228.266C163.527 228.036 163.84 227.906 164.166 227.906H182.865C183.191 227.906 183.504 228.036 183.735 228.266C183.966 228.497 184.095 228.81 184.095 229.136C184.095 229.463 183.966 229.775 183.735 230.006C183.504 230.237 183.191 230.367 182.865 230.367Z" fill="white"/>
<path d="M178.621 387.144C178.621 386.134 178.321 385.147 177.76 384.307C177.199 383.468 176.402 382.813 175.469 382.427C174.536 382.04 173.51 381.939 172.519 382.136C171.529 382.333 170.619 382.82 169.905 383.534C169.191 384.248 168.705 385.158 168.508 386.148C168.311 387.138 168.412 388.165 168.799 389.098C169.185 390.031 169.84 390.828 170.679 391.389C171.519 391.95 172.506 392.25 173.515 392.25C174.869 392.25 176.168 391.712 177.125 390.754C178.083 389.797 178.621 388.498 178.621 387.144Z" fill="#7BC678" stroke="#263238" stroke-width="0.704333" stroke-miterlimit="10"/>
<path d="M176.099 384.56H170.932V389.728H176.099V384.56Z" fill="#7BC678" stroke="#263238" stroke-width="0.52825" stroke-linecap="round" stroke-linejoin="round"/>
<path opacity="0.6" d="M176.099 384.56H170.932V389.728H176.099V384.56Z" fill="white" stroke="#263238" stroke-width="0.52825" stroke-linecap="round" stroke-linejoin="round"/>
<path d="M176.099 384.56H170.932V389.728H176.099V384.56Z" stroke="#263238" stroke-width="0.52825" stroke-linecap="round" stroke-linejoin="round"/>
<path d="M466.839 385.557V275.482C466.839 267.885 460.682 261.727 453.086 261.727H220.742C213.146 261.727 206.989 267.885 206.989 275.482V385.557C206.989 393.153 213.146 399.312 220.742 399.312H453.086C460.682 399.312 466.839 393.153 466.839 385.557Z" fill="#7BC678" stroke="#263238" stroke-width="0.868674" stroke-miterlimit="10"/>
<path d="M452.988 393.197V267.842H220.841V393.197H452.988Z" fill="white"/>
<g style="mix-blend-mode:multiply" opacity="0.4">
<path d="M452.988 293.001L281.218 393.185H452.988V293.001Z" fill="#7BC678"/>
</g>
<path d="M452.988 393.197V267.842H220.841V393.197H452.988Z" stroke="#263238" stroke-width="0.651505" stroke-miterlimit="10"/>
<path d="M459.237 332.396C458.862 332.396 458.495 332.284 458.183 332.075C457.871 331.867 457.628 331.57 457.485 331.223C457.342 330.876 457.305 330.495 457.38 330.127C457.454 329.759 457.635 329.421 457.902 329.157C458.168 328.892 458.506 328.713 458.875 328.641C459.243 328.569 459.624 328.609 459.97 328.754C460.316 328.899 460.611 329.144 460.818 329.457C461.025 329.77 461.134 330.138 461.131 330.513C461.128 331.014 460.927 331.492 460.572 331.845C460.217 332.198 459.737 332.396 459.237 332.396Z" fill="#263238"/>
<path d="M425.604 262.982H433.908C434.159 262.982 434.363 262.778 434.363 262.527V262.182C434.363 261.931 434.159 261.727 433.908 261.727H425.604C425.353 261.727 425.149 261.931 425.149 262.182V262.527C425.149 262.778 425.353 262.982 425.604 262.982Z" fill="#7BC678" stroke="#263238" stroke-width="0.652671" stroke-miterlimit="10"/>
<path d="M396.276 262.97H412.183C412.266 262.971 412.349 262.956 412.426 262.925C412.504 262.895 412.575 262.849 412.634 262.79C412.694 262.732 412.741 262.662 412.773 262.585C412.806 262.508 412.822 262.426 412.822 262.342C412.822 262.259 412.806 262.176 412.773 262.099C412.741 262.022 412.694 261.953 412.634 261.894C412.575 261.836 412.504 261.79 412.426 261.759C412.349 261.728 412.266 261.713 412.183 261.715H396.276C396.11 261.715 395.95 261.781 395.833 261.898C395.715 262.016 395.649 262.176 395.649 262.342C395.649 262.509 395.715 262.668 395.833 262.786C395.95 262.904 396.11 262.97 396.276 262.97Z" fill="#7BC678" stroke="#263238" stroke-width="0.652671" stroke-miterlimit="10"/>
<path d="M439.985 402.793C439.985 404.627 429.011 406.115 415.479 406.115C401.947 406.115 390.962 404.639 390.962 402.793C390.962 400.948 401.935 399.459 415.479 399.459C429.024 399.459 439.985 400.948 439.985 402.793Z" fill="#7BC678"/>
<path d="M394.382 353.483C394.382 381.485 416.525 404.171 416.525 404.171C416.525 404.171 438.668 381.485 438.668 353.483C438.668 325.481 416.525 302.794 416.525 302.794C416.525 302.794 394.382 325.481 394.382 353.483Z" fill="#263238"/>
<path d="M416.562 404.171V302.794" stroke="white" stroke-width="0.738" stroke-miterlimit="10"/>
<path d="M416.562 338.83L404.137 327.991" stroke="white" stroke-width="0.738" stroke-miterlimit="10"/>
<path d="M416.759 355.587L432.124 333.306" stroke="white" stroke-width="0.738" stroke-miterlimit="10"/>
<path d="M416.562 365.245L398.232 348.882" stroke="white" stroke-width="0.738" stroke-miterlimit="10"/>
<path d="M416.759 378.249L434.892 362.083" stroke="white" stroke-width="0.738" stroke-miterlimit="10"/>
<path d="M416.759 389.482L402.562 378.249" stroke="white" stroke-width="0.738" stroke-miterlimit="10"/>
<path d="M379.017 389.875C389.793 402.031 408.135 403.335 408.135 403.335C408.135 403.335 409.033 384.966 398.294 372.811C387.554 360.656 369.175 359.352 369.175 359.352C369.175 359.352 368.204 377.781 379.017 389.875Z" fill="#263238"/>
<path d="M408.135 403.384L369.139 359.401" stroke="white" stroke-width="0.738" stroke-miterlimit="10"/>
<path d="M383.003 375.038L373.444 375.112" stroke="white" stroke-width="0.738" stroke-miterlimit="10"/>
<path d="M389.535 382.235L387.628 366.66" stroke="white" stroke-width="0.738" stroke-miterlimit="10"/>
<path d="M393.164 386.492L378.918 386.455" stroke="white" stroke-width="0.738" stroke-miterlimit="10"/>
<path d="M398.257 392.065L399.905 378.077" stroke="white" stroke-width="0.738" stroke-miterlimit="10"/>
<path d="M402.575 396.937L392.094 397.528" stroke="white" stroke-width="0.738" stroke-miterlimit="10"/>
<path d="M435.532 372.442C424.214 384.081 424.275 402.486 424.275 402.486C424.275 402.486 442.667 402.006 453.972 390.355C465.277 378.704 465.228 360.348 465.228 360.348C465.228 360.348 446.837 360.791 435.532 372.442Z" fill="#263238"/>
<path d="M424.275 402.486L465.228 360.311" stroke="white" stroke-width="0.738" stroke-miterlimit="10"/>
<path d="M450.675 375.296L449.888 365.774" stroke="white" stroke-width="0.738" stroke-miterlimit="10"/>
<path d="M443.983 382.346L459.372 379.295" stroke="white" stroke-width="0.738" stroke-miterlimit="10"/>
<path d="M439.997 386.283L438.988 372.073" stroke="white" stroke-width="0.738" stroke-miterlimit="10"/>
<path d="M434.83 391.782L448.903 392.373" stroke="white" stroke-width="0.738" stroke-miterlimit="10"/>
<path d="M430.291 396.457L428.925 386.049" stroke="white" stroke-width="0.738" stroke-miterlimit="10"/>
</svg>
