<svg width="176" height="70" viewBox="0 0 176 70" fill="none" xmlns="http://www.w3.org/2000/svg">
<path d="M4.44 56V13.4H23.28C25.24 13.4 27.04 13.8 28.68 14.6C30.36 15.4 31.8 16.48 33 17.84C34.24 19.2 35.18 20.72 35.82 22.4C36.5 24.08 36.84 25.8 36.84 27.56C36.84 29.36 36.52 31.1 35.88 32.78C35.28 34.42 34.4 35.86 33.24 37.1C32.08 38.34 30.72 39.3 29.16 39.98L38.88 56H29.76L21 41.72H12.72V56H4.44ZM12.72 34.46H23.1C24.14 34.46 25.06 34.16 25.86 33.56C26.66 32.92 27.3 32.08 27.78 31.04C28.26 30 28.5 28.84 28.5 27.56C28.5 26.2 28.22 25.02 27.66 24.02C27.1 22.98 26.38 22.16 25.5 21.56C24.66 20.96 23.74 20.66 22.74 20.66H12.72V34.46ZM57.0877 56.6C54.5677 56.6 52.2877 56.18 50.2477 55.34C48.2077 54.46 46.4677 53.28 45.0277 51.8C43.5877 50.28 42.4677 48.56 41.6677 46.64C40.9077 44.68 40.5277 42.62 40.5277 40.46C40.5277 37.46 41.1877 34.72 42.5077 32.24C43.8677 29.76 45.7877 27.78 48.2677 26.3C50.7877 24.78 53.7477 24.02 57.1477 24.02C60.5877 24.02 63.5277 24.78 65.9677 26.3C68.4077 27.78 70.2677 29.76 71.5477 32.24C72.8677 34.68 73.5277 37.32 73.5277 40.16C73.5277 40.64 73.5077 41.14 73.4677 41.66C73.4277 42.14 73.3877 42.54 73.3477 42.86H49.0477C49.2077 44.46 49.6677 45.86 50.4277 47.06C51.2277 48.26 52.2277 49.18 53.4277 49.82C54.6677 50.42 55.9877 50.72 57.3877 50.72C58.9877 50.72 60.4877 50.34 61.8877 49.58C63.3277 48.78 64.3077 47.74 64.8277 46.46L71.7277 48.38C70.9677 49.98 69.8677 51.4 68.4277 52.64C67.0277 53.88 65.3677 54.86 63.4477 55.58C61.5277 56.26 59.4077 56.6 57.0877 56.6ZM48.8677 37.76H65.3077C65.1477 36.16 64.6877 34.78 63.9277 33.62C63.2077 32.42 62.2477 31.5 61.0477 30.86C59.8477 30.18 58.5077 29.84 57.0277 29.84C55.5877 29.84 54.2677 30.18 53.0677 30.86C51.9077 31.5 50.9477 32.42 50.1877 33.62C49.4677 34.78 49.0277 36.16 48.8677 37.76ZM121.222 56L109.642 24.56H117.982L125.902 48.68L133.882 24.56H141.502L129.982 56H121.222ZM154.21 56L142.63 24.56H150.97L158.89 48.68L166.87 24.56H174.49L162.97 56H154.21Z" fill="#292D34"/>
<path d="M78.3656 12.2H86.4056V45.92C86.4056 47.36 86.6456 48.34 87.1256 48.86C87.6056 49.34 88.2656 49.58 89.1056 49.58C89.7456 49.58 90.4056 49.5 91.0856 49.34C91.7656 49.18 92.3656 48.98 92.8856 48.74L93.9656 54.86C92.8856 55.38 91.6256 55.78 90.1856 56.06C88.7456 56.34 87.4456 56.48 86.2856 56.48C83.7656 56.48 81.8056 55.82 80.4056 54.5C79.0456 53.14 78.3656 51.22 78.3656 48.74V12.2ZM97.4686 56V24.56H105.509V56H97.4686ZM97.4686 20.18V12.2H105.509V20.18H97.4686Z" fill="#7BC678"/>
<path d="M108.149 13.2399C108.194 8.97203 105.489 7.45727 102.135 7.42674C102.057 7.42604 101.979 7.42615 101.902 7.42707C101.747 7.42878 101.593 7.43398 101.44 7.44269C98.4106 7.61512 96.0418 9.16022 96.0002 13.1294C95.9573 17.237 101.53 22.4719 101.948 22.859L101.949 22.8593C101.965 22.8741 101.973 22.8815 101.973 22.8815C101.973 22.8815 108.104 17.5075 108.149 13.2399Z" fill="#7BC678"/>
</svg>
